# xmcd CD database file
#
# Track frame offsets:
#	150
#	14655
#	34697
#	52660
#	70490
#	93902
#	105615
#	121957
#	137505
#	161857
#	174387
#	194140
#	209362
#	231060
#	246697
#	263957
#
# Disc length: 3697 seconds
#
# Revision: 3
# Processed by: cddbd v1.5.1PL2 Copyright (c) Steve Scherf et al.
# Submitted via: CDex 1.51
#
DISCID=e90e6f10
DTITLE=Dramatics, The - Whatcha See Is Whatcha Get - A Dramatic Experience
DYEAR=1973
DGENRE=Blues
TTITLE0=Up And Get Down
TTITLE1=Thank You For Your Love
TTITLE2=Hot Pants In The Sumertime
TTITLE3=Whatcha See Is Whatcha Get
TTITLE4=In The Rain
TTITLE5=(Gimme Good) Good Soul Music
TTITLE6=Fall In Love, Lady Love
TTITLE7=Mary Don't Cha Wanna
TTITLE8=The Devil Is Dope
TTITLE9=You Could Become The Very Heart Of Me
TTITLE10=Now You Got Me Loving You
TTITLE11=Fell For You
TTITLE12=Jim, What's Wrong With Him
TTITLE13=Hey You! Get Off My Mountain
TTITLE14=Beautiful People
TTITLE15=Beware Of The Man (With The Candy In His Hand)
EXTD=YEAR: 1973
EXTT0=
EXTT1=
EXTT2=
EXTT3=
EXTT4=
EXTT5=
EXTT6=
EXTT7=
EXTT8=73
EXTT9=73
EXTT10=73
EXTT11=73
EXTT12=73
EXTT13=73
EXTT14=73
EXTT15=73
PLAYORDER=
